<svg width="256" height="256" viewBox="0 0 256 256" fill="none" xmlns="http://www.w3.org/2000/svg">
<rect width="256" height="256" fill="#F9FAFB"/>
<path d="M146.847 33.0022C147.097 33.0015 147.347 33.0007 147.605 33C152.116 32.9986 156.409 33.3888 160.853 34.1939C161.342 34.2748 161.831 34.3554 162.319 34.4357C174.067 36.4717 185.596 41.8983 194.843 49.3923C195.096 49.5929 195.35 49.7934 195.611 50.0001C197.514 51.5228 199.31 53.1487 201.08 54.8223C201.414 55.1376 201.75 55.4502 202.087 55.7621C203.67 57.2745 204.982 58.9986 206.308 60.7337C206.731 61.2819 207.16 61.8238 207.592 62.365C209.954 65.3515 211.991 68.4882 213.91 71.7755C214.027 71.9748 214.143 72.1741 214.264 72.3795C223.918 89.0846 225.526 109.69 220.611 128.096C220.323 129.13 220.021 130.16 219.713 131.188C219.602 131.559 219.602 131.559 219.489 131.937C216.582 141.44 211.612 149.8 205.188 157.336C205.059 157.488 204.929 157.64 204.796 157.796C204.541 158.096 204.286 158.395 204.03 158.693C203.731 159.044 203.435 159.396 203.139 159.75C202.195 160.862 201.195 161.827 200.081 162.771C199.568 163.218 199.097 163.685 198.625 164.175C197.364 165.45 195.976 166.559 194.566 167.664C194.326 167.853 194.326 167.853 194.082 168.045C177.972 180.634 157.976 186.038 137.705 183.684C122.884 181.787 108.377 175.536 97.2963 165.453C96.2546 165.886 95.5939 166.535 94.8015 167.328C94.667 167.462 94.5325 167.596 94.394 167.734C93.9514 168.176 93.5108 168.619 93.0703 169.063C92.7628 169.371 92.4553 169.678 92.1477 169.986C91.5041 170.63 90.8615 171.275 90.2196 171.92C89.3958 172.749 88.5702 173.575 87.744 174.401C87.1093 175.036 86.4754 175.672 85.8417 176.307C85.5374 176.613 85.233 176.918 84.9284 177.222C84.5037 177.648 84.0799 178.074 83.6563 178.5C83.4148 178.743 83.1733 178.985 82.9245 179.235C82.3637 179.778 82.3637 179.778 82.0978 180.375C82.3447 180.483 82.3447 180.483 82.5965 180.593C83.2425 180.95 83.5966 181.297 84.0667 181.861C84.2042 182.022 84.3417 182.184 84.4834 182.351C85.2738 183.421 85.4814 184.229 85.5412 185.572C85.186 187.264 83.6747 188.549 82.494 189.721C82.3122 189.904 82.1303 190.087 81.943 190.275C81.3355 190.884 80.726 191.492 80.1165 192.1C79.6797 192.537 79.243 192.975 78.8064 193.413C77.6219 194.6 76.4357 195.785 75.249 196.97C74.0077 198.21 72.7677 199.451 71.5275 200.692C69.3118 202.909 67.0948 205.124 64.8772 207.339C62.8666 209.347 60.8575 211.357 58.8493 213.368C56.5162 215.704 54.1822 218.039 51.8468 220.373C50.611 221.608 49.3755 222.843 48.1409 224.079C46.9809 225.241 45.8195 226.401 44.6571 227.56C44.2302 227.987 43.8037 228.413 43.3778 228.84C42.7975 229.422 42.2155 230.002 41.633 230.582C41.3793 230.838 41.3793 230.838 41.1205 231.098C40.964 231.253 40.8075 231.408 40.6462 231.568C40.445 231.769 40.445 231.769 40.2398 231.974C39.521 232.575 38.8759 232.853 37.9532 233C35.4455 232.662 33.7845 230.493 32.1102 228.774C31.4632 228.112 30.8009 227.486 30.0949 226.886C25.4301 222.895 25.4301 222.895 25 220.185C25.115 218.054 27.2819 216.319 28.7097 214.901C28.8897 214.72 29.0696 214.539 29.255 214.353C29.8431 213.762 30.4331 213.174 31.0232 212.586C31.4347 212.174 31.8461 211.762 32.2575 211.35C33.116 210.491 33.9755 209.632 34.8357 208.775C35.9403 207.673 37.0424 206.569 38.1437 205.465C38.9909 204.615 39.8394 203.768 40.6883 202.92C41.0955 202.513 41.5023 202.106 41.9086 201.698C42.4742 201.131 43.0414 200.566 43.6092 200.002C43.7777 199.832 43.9463 199.662 44.1199 199.488C45.2821 198.337 45.282 198.337 45.8979 198.337C45.9891 198.064 46.0803 197.79 46.1742 197.508C46.5563 197.142 46.5563 197.142 47.0378 196.766C47.7782 196.156 48.4077 195.531 49.0239 194.797C49.9546 193.699 50.9882 192.769 52.0809 191.835C52.6377 191.311 53.1087 190.808 53.5984 190.228C55.0739 188.532 56.6778 186.959 58.266 185.37C58.6069 185.028 58.9478 184.686 59.2887 184.344C59.9993 183.632 60.7106 182.92 61.4222 182.209C62.3326 181.299 63.2411 180.386 64.1492 179.474C64.8509 178.769 65.5538 178.065 66.2572 177.362C66.5927 177.026 66.9279 176.69 67.2626 176.353C67.73 175.883 68.1991 175.414 68.6687 174.947C68.8054 174.808 68.9421 174.67 69.0829 174.528C70.1998 173.421 71.0736 172.707 72.6506 172.5C74.3243 172.563 75.5226 173.561 76.7093 174.659C76.8461 174.813 76.9828 174.966 77.1238 175.125C78.2184 174.695 78.8662 173.937 79.6238 173.075C81.9412 170.504 84.4113 168.084 86.8646 165.643C87.3421 165.167 87.8196 164.691 88.297 164.215C89.4538 163.061 90.6114 161.908 91.7696 160.756C91.2893 159.73 90.697 159.066 89.9043 158.251C80.1473 147.868 73.5551 133.122 71.8734 119.029C71.8045 118.504 71.8045 118.504 71.7342 117.968C71.3266 114.743 71.2099 111.553 71.2171 108.304C71.2173 108.045 71.2174 107.787 71.2176 107.521C71.2584 92.1701 76.0833 77.0236 85.1375 64.5908C85.339 64.3108 85.339 64.3108 85.5446 64.0252C87.1812 61.7571 88.8831 59.6138 90.8099 57.5853C91.2979 57.0626 91.754 56.5436 92.2046 55.9909C92.7588 55.3332 93.288 54.7926 93.9457 54.2455C94.667 53.6434 95.3321 53.0128 95.9869 52.3403C96.9936 51.3265 98.0724 50.4568 99.2133 49.5996C99.5192 49.3683 99.5192 49.3683 99.8313 49.1324C111.476 40.3929 124.282 35.1621 138.747 33.3649C138.959 33.3362 139.172 33.3075 139.39 33.2779C141.862 32.9803 144.361 33.0091 146.847 33.0022ZM134.325 40.2733C134.051 40.3296 133.778 40.386 133.496 40.4441C124.508 42.3443 115.565 45.6259 108.073 51.0504C107.905 51.1721 107.737 51.2939 107.563 51.4194C103.746 54.1962 100.185 57.2181 96.7436 60.4458C96.5687 60.6057 96.3938 60.7656 96.2136 60.9304C93.2565 63.733 90.9767 67.2969 88.7299 70.6702C88.618 70.8369 88.5061 71.0037 88.3908 71.1755C82.989 79.2526 79.7855 88.4573 78.2291 98.0274C78.1777 98.3321 78.1262 98.6367 78.0732 98.9506C77.6141 101.955 77.5771 104.925 77.5901 107.958C77.5909 108.221 77.5917 108.485 77.5925 108.756C77.6673 125.605 83.6802 142.316 95.3619 154.676C95.6975 155.06 96.0314 155.446 96.3636 155.833C97.9311 157.623 99.6041 159.163 101.461 160.652C101.99 161.081 102.513 161.518 103.028 161.965C106.665 165.108 110.745 167.624 114.982 169.875C115.243 170.015 115.243 170.015 115.51 170.159C131.107 178.515 150.067 180.076 166.932 175.082C176.947 172.02 186.359 167.156 194.014 159.927C194.364 159.626 194.715 159.326 195.067 159.028C197.725 156.705 200.155 154.161 202.304 151.36C202.417 151.216 202.53 151.072 202.646 150.923C209.425 142.242 213.38 132.336 215.706 121.654C215.754 121.437 215.801 121.22 215.85 120.996C219.149 105.767 215.958 89.8855 208.936 76.1969C208.817 75.9635 208.698 75.7301 208.575 75.4896C206.087 70.6627 202.872 66.4209 199.264 62.3801C198.926 61.9965 198.926 61.9965 198.582 61.6051C196.394 59.1402 194.112 56.9652 191.527 54.9191C191.126 54.5947 191.126 54.5947 190.718 54.2638C182.006 47.3447 171.681 43.0009 160.871 40.6014C160.629 40.5475 160.388 40.4937 160.139 40.4382C155.806 39.5255 151.57 39.3412 147.158 39.3579C146.735 39.3588 146.735 39.3588 146.303 39.3597C142.262 39.3734 138.295 39.4394 134.325 40.2733Z" fill="#003087"/>
<path d="M157.917 71.9633C158.099 71.9633 158.282 71.9633 158.47 71.9633C158.93 72.4238 159.391 72.8844 159.851 73.3449C160.45 73.7028 160.45 73.7028 160.957 73.8976C160.677 74.8923 160.221 75.5225 159.537 76.2702C158.435 77.5087 157.45 78.8163 156.466 80.1497C154.508 82.7818 152.504 85.37 150.448 87.927C148.982 89.7513 147.533 91.5814 146.139 93.4624C145.628 94.1504 145.112 94.8339 144.591 95.5155C144.439 95.7166 144.286 95.9177 144.128 96.1249C143.826 96.5226 143.523 96.9197 143.218 97.3159C143.082 97.4965 142.945 97.6771 142.804 97.8632C142.619 98.1051 142.619 98.1051 142.431 98.3518C142.116 98.7633 142.116 98.7633 142.166 99.3205C142.595 99.7055 143.042 100.07 143.496 100.426C144.609 101.315 145.678 102.222 146.725 103.189C147.961 104.326 149.237 105.392 150.543 106.446C151.27 107.046 151.97 107.666 152.667 108.301C153.825 109.356 155.023 110.349 156.242 111.334C157.422 112.307 158.572 113.315 159.719 114.328C160.925 115.385 162.151 116.313 163.444 117.282C163.353 103.33 163.261 89.3779 163.167 75.0029C164.444 75.0029 165.721 75.0029 167.036 75.0029C167.036 89.2287 167.036 103.454 167.036 118.111C170.775 116.561 174.514 115.011 178.366 113.414C178.731 113.322 179.095 113.231 179.471 113.137C179.749 113.678 180.025 114.219 180.3 114.761C180.454 115.062 180.608 115.363 180.766 115.674C181.129 116.453 181.129 116.453 181.129 117.006C176.57 118.83 172.01 120.654 167.312 122.533C167.221 130.101 167.13 137.67 167.036 145.468C165.851 145.468 164.665 145.468 163.444 145.468C163.11 130.439 163.11 130.439 163.167 123.638C162.924 123.716 162.681 123.795 162.43 123.876C150.045 127.86 137.584 131.605 125.119 135.33C124.844 135.413 124.568 135.496 124.285 135.581C123.526 135.808 122.767 136.034 122.007 136.26C121.787 136.326 121.566 136.392 121.339 136.46C119.846 136.902 119.846 136.902 119.23 136.902C118.774 135.717 118.318 134.531 117.848 133.31C122.467 131.815 127.123 130.45 131.779 129.079C132.871 128.757 133.963 128.435 135.054 128.112C135.381 128.016 135.381 128.016 135.714 127.917C136.154 127.788 136.593 127.658 137.032 127.528C137.688 127.335 138.343 127.141 138.998 126.948C142.451 125.928 145.904 124.906 149.354 123.878C149.884 123.721 150.413 123.563 150.943 123.406C154.012 122.494 157.074 121.563 160.128 120.598C160.192 119.993 160.192 119.993 159.63 119.535C158.145 118.225 156.634 116.957 155.094 115.712C154.046 114.84 153.049 113.915 152.046 112.992C151.055 112.102 150.023 111.269 148.987 110.433C148.26 109.833 147.56 109.213 146.864 108.578C145.679 107.498 144.45 106.485 143.203 105.478C142.182 104.632 141.205 103.742 140.23 102.844C139.711 102.347 139.711 102.347 139.126 102.084C139.05 102.244 138.975 102.404 138.897 102.568C138.578 103.181 138.224 103.718 137.821 104.278C137.674 104.484 137.526 104.689 137.374 104.9C137.217 105.116 137.06 105.333 136.898 105.555C136.736 105.779 136.574 106.003 136.407 106.234C135.356 107.674 134.272 109.075 133.129 110.443C131.058 112.922 129.074 115.465 127.146 118.056C125.762 119.914 124.338 121.739 122.912 123.565C122.225 124.444 121.544 125.328 120.866 126.215C120.324 126.924 119.777 127.63 119.23 128.336C119.062 128.557 119.062 128.557 118.89 128.782C118.558 129.217 118.22 129.649 117.883 130.08C117.69 130.33 117.497 130.579 117.298 130.837C116.743 131.375 116.743 131.375 115.638 131.375C114.986 131.013 114.986 131.013 114.325 130.546C114.104 130.392 113.883 130.239 113.656 130.08C113.489 129.96 113.322 129.841 113.151 129.717C113.513 128.947 113.917 128.286 114.436 127.612C114.653 127.33 114.653 127.33 114.875 127.041C115.03 126.841 115.184 126.642 115.344 126.436C115.505 126.227 115.665 126.019 115.831 125.804C117.199 124.031 118.58 122.269 119.968 120.511C120.581 119.735 121.192 118.958 121.803 118.18C121.927 118.023 122.051 117.866 122.178 117.704C122.889 116.8 123.596 115.893 124.3 114.983C125.87 112.956 127.448 110.94 129.074 108.958C130.574 107.128 132.003 105.253 133.412 103.352C134.177 102.321 134.971 101.313 135.78 100.316C136.139 99.8871 136.139 99.8871 136.086 99.3205C135.652 98.9296 135.199 98.5589 134.739 98.1979C133.686 97.3557 132.66 96.5005 131.665 95.5899C130.721 94.7293 129.757 93.9065 128.764 93.1029C127.53 92.1053 126.352 91.0624 125.18 89.9941C124.211 89.1328 123.202 88.3242 122.194 87.5093C121.451 86.8942 120.736 86.2576 120.024 85.6073C118.797 84.4884 117.518 83.4611 116.19 82.464C116.352 81.4524 116.766 80.9316 117.451 80.1842C117.628 79.989 117.805 79.7938 117.988 79.5927C118.124 79.4459 118.26 79.2992 118.401 79.148C119.53 79.7681 120.403 80.5092 121.337 81.3932C122.65 82.6217 124.005 83.7732 125.407 84.9014C126.131 85.4975 126.827 86.1153 127.52 86.7472C128.464 87.6079 129.428 88.4306 130.422 89.2342C131.652 90.2295 132.828 91.2695 133.997 92.3354C135.012 93.2376 136.065 94.0895 137.123 94.9412C137.744 95.4518 137.744 95.4518 138.297 96.0044C138.985 95.9447 139.312 95.8175 139.805 95.3313C139.929 95.1623 140.052 94.9933 140.18 94.8192C140.321 94.6295 140.463 94.4399 140.608 94.2444C140.757 94.0387 140.907 93.833 141.061 93.621C141.382 93.1882 141.705 92.7558 142.028 92.3236C142.19 92.1055 142.352 91.8874 142.519 91.6627C143.21 90.7446 143.929 89.8506 144.653 88.9579C145.823 87.5079 146.964 86.0383 148.09 84.5538C149.432 82.7847 150.815 81.0542 152.222 79.3369C153.525 77.743 154.758 76.1048 155.983 74.4503C156.343 73.9651 156.706 73.4814 157.071 72.9995C157.221 72.7986 157.372 72.5977 157.527 72.3907C157.656 72.2497 157.784 72.1086 157.917 71.9633Z" fill="#003087"/>
<path d="M108.177 84.1219C109.272 84.1219 110.366 84.1219 111.493 84.1219C111.493 98.986 111.493 113.85 111.493 129.165C110.399 129.165 109.305 129.165 108.177 129.165C108.177 114.301 108.177 99.4365 108.177 84.1219Z" fill="#003087"/>
<path d="M155.43 64.7787C155.704 66.6937 155.704 66.6937 155.983 68.6474C155.006 69.0383 154.372 69.2775 153.382 69.4278C153.138 69.4658 152.894 69.5039 152.643 69.543C152.372 69.5837 152.1 69.6244 151.821 69.6664C151.193 69.7638 150.565 69.8613 149.937 69.9589C149.583 70.0134 149.229 70.0678 148.865 70.1239C146.84 70.4365 144.816 70.7599 142.792 71.0819C142.022 71.2044 141.252 71.3263 140.482 71.4482C137.591 71.9066 134.703 72.3755 131.816 72.8561C131.197 72.9588 130.578 73.0614 129.959 73.164C128.768 73.3616 127.576 73.5615 126.385 73.7626C125.838 73.8534 125.291 73.9442 124.744 74.0348C124.498 74.0771 124.252 74.1193 123.998 74.1628C122.572 74.3968 121.228 74.4906 119.783 74.4504C119.746 74.2406 119.709 74.0308 119.672 73.8146C119.623 73.54 119.574 73.2654 119.524 72.9824C119.476 72.7099 119.428 72.4374 119.378 72.1566C119.242 71.3881 119.242 71.3881 118.954 70.5817C119.238 70.5387 119.523 70.4958 119.816 70.4515C125.502 69.5909 131.177 68.6949 136.841 67.6996C140.474 67.0661 144.114 66.4718 147.759 65.9062C149.452 65.6412 151.14 65.3459 152.825 65.0312C153.718 64.868 154.517 64.7787 155.43 64.7787Z" fill="#003087"/>
<path d="M119.507 138.284C122.029 138.931 124.481 139.742 126.946 140.576C131.7 142.182 136.47 143.737 141.251 145.261C141.542 145.354 141.834 145.447 142.135 145.543C143.281 145.908 144.426 146.274 145.572 146.638C148.089 147.44 150.603 148.249 153.116 149.061C153.297 149.119 153.479 149.178 153.666 149.238C154.622 149.547 155.579 149.857 156.535 150.166C156.319 151.293 156.03 152.381 155.706 153.482C154.056 153.135 152.438 152.726 150.822 152.245C150.595 152.178 150.367 152.111 150.133 152.042C149.383 151.821 148.633 151.598 147.883 151.375C147.622 151.298 147.361 151.22 147.092 151.141C137.679 148.35 128.285 145.483 118.954 142.429C119.136 141.061 119.319 139.693 119.507 138.284Z" fill="#003087"/>
<path d="M172.01 73.0688C172.616 74.0839 173.212 75.1042 173.806 76.1258C173.978 76.4127 174.149 76.6997 174.326 76.9953C175.88 79.6855 175.88 79.6855 175.603 81.3589C175.292 81.8943 175.292 81.8943 174.774 82.1879C173.944 82.2915 173.944 82.2915 173.115 82.1879C172.163 81.3863 171.642 80.3244 171.043 79.2519C170.932 79.0543 170.821 78.8568 170.707 78.6533C169.954 77.2854 169.376 75.9639 168.97 74.4505C169.373 74.2188 169.776 73.9889 170.179 73.7597C170.404 73.6314 170.628 73.5032 170.859 73.3711C171.457 73.0688 171.457 73.0688 172.01 73.0688Z" fill="#003087"/>
<path d="M185.828 120.598C186.01 120.781 186.192 120.963 186.38 121.151C186.334 122.989 185.536 124.532 184.774 126.177C184.653 126.449 184.532 126.721 184.407 127.001C184.287 127.263 184.167 127.525 184.043 127.795C183.935 128.031 183.827 128.268 183.715 128.512C183.299 129.237 182.881 129.738 182.235 130.27C180.767 130.184 180.767 130.184 180.301 129.717C180.38 127.73 181.087 126.164 181.924 124.381C182.048 124.108 182.172 123.835 182.299 123.553C183.764 120.379 183.764 120.379 185.828 120.598Z" fill="#003087"/>
<path d="M177.951 135.451C178.642 135.52 178.642 135.52 179.195 136.073C179.155 137.97 178.49 139.335 177.589 140.978C177.467 141.209 177.346 141.44 177.221 141.679C176.056 143.849 176.056 143.849 175.05 144.639C174.324 144.743 174.324 144.743 173.668 144.639C173.486 144.457 173.303 144.275 173.115 144.087C173.185 142.494 173.721 141.305 174.445 139.924C174.54 139.736 174.635 139.548 174.733 139.354C176.665 135.58 176.665 135.58 177.951 135.451Z" fill="#003087"/>
<path d="M177.589 86.0911C178.642 86.3329 178.642 86.3329 179.199 87.0053C180.946 89.8486 180.946 89.8486 180.577 91.5832C180.248 92.1186 180.248 92.1186 179.748 92.4122C179.074 92.5504 179.074 92.5504 178.366 92.4122C177.232 91.3491 176.381 89.7352 175.879 88.2672C175.996 86.9479 176.27 86.4531 177.589 86.0911Z" fill="#003087"/>
<path d="M183.893 96.8334C184.483 97.5028 184.873 98.2513 185.275 99.0441C185.44 99.3518 185.605 99.6596 185.776 99.9767C186.104 100.702 186.104 100.702 186.104 101.255C185.192 101.62 184.28 101.984 183.341 102.36C183.014 101.891 182.692 101.418 182.373 100.944C182.194 100.681 182.014 100.418 181.829 100.147C181.358 99.2263 181.299 98.6823 181.406 97.6624C182.014 96.6498 182.788 96.5903 183.893 96.8334Z" fill="#003087"/>
<circle cx="109.973" cy="76.2467" r="10.9153" fill="#00B2E2"/>
<circle cx="166.069" cy="65.4698" r="10.9153" fill="#00B2E2"/>
<circle cx="190.111" cy="111.618" r="10.9153" fill="#00B2E2"/>
<circle cx="166.069" cy="152.239" r="10.9153" fill="#00B2E2"/>
<circle cx="108.591" cy="139.528" r="10.9153" fill="#00B2E2"/>
</svg>
