<?xml version="1.0" encoding="UTF-8"?><svg xmlns="http://www.w3.org/2000/svg" viewBox="0 0 505.57 124.92"><defs><style>.d{fill:#00b2e3;}.e{fill:#fff;}</style></defs><g id="a"/><g id="b"><g id="c"><g><path class="e" d="M481.27,67.01c-12.48-2.29-13.45-4.65-13.45-7.75,0-4.33,3.82-6.72,10.76-6.72,7.5,0,11.94,2.8,13.22,8.31l.28,1.2h12.09l-.16-1.7c-.82-8.8-7.81-18.19-24.95-18.19s-23.6,9.63-23.6,17.87c0,9.92,6.62,15.15,22.86,18.07,13.63,2.4,14.72,5.49,14.72,9.28,0,5.38-4.08,8-12.46,8s-13.46-3.3-15.28-9.8l-.32-1.13h-12.28l.28,1.79c1.99,12.65,11.64,19.61,27.18,19.61s25.41-7.16,25.41-19.15c0-9.16-4.13-16.02-24.3-19.7"/><path class="e" d="M156.33,92.43h-13.43V32.65h13.43c16.23,0,29.43,13.41,29.43,29.89,0,7.97-3.07,15.48-8.63,21.13-5.57,5.65-12.95,8.76-20.8,8.76m0-71.6h-26.18V104.25h26.18c11.25,0,21.83-4.34,29.8-12.23,7.98-7.89,12.37-18.36,12.37-29.48,0-23-18.92-41.71-42.17-41.71"/><path class="e" d="M383.59,42.82l-1.22-.25c-6.71-1.35-11.94,.94-15.15,3.09-3.68,2.47-6.61,6.08-7.93,9.74h-2.09v-11.82h-25.6v11.14h13.31v38.21h-13.31v11.14h51.14v-11.14h-25.54v-18.64c0-7.05,2.71-12.42,7.42-15.91,4.65-3.43,10.83-4.33,16.96-2.45l2.01,.61v-13.71"/><path class="e" d="M446.23,70.34c0-18.17-8.78-28.17-24.73-28.17-4.72,0-13.11,1.32-16.78,10.1h-2.09v-8.49h-12.28v60.48h12.28v-32.42c0-12.55,5.12-18.64,15.66-18.64,12.94,0,15.66,9.33,15.66,17.15v33.91h12.28v-33.91Z"/><path class="e" d="M233.2,42.17c-17.6,0-28.98,12.14-28.98,30.93v1.72c0,18.86,11.37,31.04,28.98,31.04,14.32,0,24.26-7.58,28-21.34l.25-.9h-12.86c-2.81,7.59-7.99,11.45-15.39,11.45-9.47,0-15.78-6.83-16.61-17.9h45.82v-4.08c0-19.08-11.19-30.93-29.21-30.93Zm-16.07,24.78c1.75-8.71,7.7-13.88,16.07-13.88s14.54,5.04,16.3,13.88h-32.38Z"/><path class="e" d="M313.74,83.62c-2.81,7.59-7.99,11.45-15.39,11.45-9.47,0-15.78-6.83-16.61-17.9h45.82v-4.08c0-19.08-11.19-30.93-29.21-30.93s-28.98,12.14-28.98,30.93v1.72c0,18.86,11.37,31.04,28.98,31.04,14.32,0,24.26-7.58,28-21.34l.25-.9h-12.85Zm-15.39-30.55c8.64,0,14.54,5.04,16.3,13.88h-32.37c1.74-8.71,7.7-13.88,16.07-13.88Z"/><path class="d" d="M62.46,0L0,62.46l62.46,62.46c15.98-15.98,25.87-38.07,25.87-62.46S78.44,15.98,62.46,0"/></g></g></g></svg>