<?xml version="1.0" encoding="utf-8"?>
<!-- Generator: Adobe Illustrator 26.2.1, SVG Export Plug-In . SVG Version: 6.00 Build 0)  -->
<svg version="1.1" id="Layer_1" xmlns="http://www.w3.org/2000/svg" xmlns:xlink="http://www.w3.org/1999/xlink" x="0px" y="0px"
	 viewBox="0 0 505.6 124.9" style="enable-background:new 0 0 505.6 124.9;" xml:space="preserve">
<style type="text/css">
	.st0{fill:#003087;}
	.st1{fill:#0077C8;}
</style>
<g id="a">
</g>
<g id="b">
	<g id="c">
		<g>
			<g>
				<path class="st0" d="M481.3,67c-12.5-2.3-13.5-4.7-13.5-7.8c0-4.3,3.8-6.7,10.8-6.7c7.5,0,11.9,2.8,13.2,8.3l0.3,1.2h12.1
					l-0.2-1.7c-0.8-8.8-7.8-18.2-25-18.2s-23.6,9.6-23.6,17.9c0,9.9,6.6,15.2,22.9,18.1c13.6,2.4,14.7,5.5,14.7,9.3
					c0,5.4-4.1,8-12.5,8s-13.5-3.3-15.3-9.8l-0.3-1.1h-12.3l0.3,1.8c2,12.7,11.6,19.6,27.2,19.6s25.4-7.2,25.4-19.2
					C505.6,77.5,501.4,70.7,481.3,67L481.3,67z"/>
				<path class="st0" d="M156.3,20.8h-26.2v83.4h26.2c11.2,0,21.8-4.3,29.8-12.2c8-7.9,12.4-18.4,12.4-29.5
					C198.5,39.5,179.6,20.8,156.3,20.8L156.3,20.8z M177.1,83.7c-5.6,5.7-12.9,8.8-20.8,8.8h-13.4V32.7h13.4
					c16.2,0,29.4,13.4,29.4,29.9C185.8,70.5,182.7,78,177.1,83.7L177.1,83.7z"/>
				<path class="st0" d="M367.2,45.7c-3.7,2.5-6.6,6.1-7.9,9.7h-2.1V43.6h-25.6v11.1h13.3v38.2h-13.3v11.1h51.1V92.9h-25.5V74.3
					c0-7.1,2.7-12.4,7.4-15.9c4.6-3.4,10.8-4.3,17-2.5l2,0.6V42.8l-1.2-0.2C375.7,41.2,370.4,43.5,367.2,45.7L367.2,45.7z"/>
				<path class="st0" d="M421.5,42.2c-4.7,0-13.1,1.3-16.8,10.1h-2.1v-8.5h-12.3v60.5h12.3V71.8c0-12.5,5.1-18.6,15.7-18.6
					c12.9,0,15.7,9.3,15.7,17.2v33.9h12.3V70.3C446.2,52.2,437.5,42.2,421.5,42.2L421.5,42.2z"/>
				<path class="st0" d="M233.2,42.2c-17.6,0-29,12.1-29,30.9v1.7c0,18.9,11.4,31,29,31c14.3,0,24.3-7.6,28-21.3l0.2-0.9h-12.9
					c-2.8,7.6-8,11.4-15.4,11.4c-9.5,0-15.8-6.8-16.6-17.9h45.8v-4.1C262.4,54,251.2,42.2,233.2,42.2L233.2,42.2z M217.1,66.9
					c1.8-8.7,7.7-13.9,16.1-13.9s14.5,5,16.3,13.9H217.1L217.1,66.9z"/>
				<path class="st0" d="M298.3,42.2c-17.6,0-29,12.1-29,30.9v1.7c0,18.9,11.4,31,29,31c14.3,0,24.3-7.6,28-21.3l0.2-0.9h-12.9
					c-2.8,7.6-8,11.4-15.4,11.4c-9.5,0-15.8-6.8-16.6-17.9h45.8v-4.1C327.6,54,316.4,42.2,298.3,42.2L298.3,42.2z M282.3,66.9
					c1.7-8.7,7.7-13.9,16.1-13.9s14.5,5,16.3,13.9H282.3z"/>
			</g>
			<path class="st1" d="M62.5,0L0,62.5l62.5,62.5c16-16,25.9-38.1,25.9-62.5S78.4,16,62.5,0"/>
		</g>
	</g>
</g>
</svg>
