<svg width="1641" height="277" viewBox="0 0 1641 277" fill="none" xmlns="http://www.w3.org/2000/svg">
<rect width="1641" height="277" fill="white"/>
<path d="M89.104 196H41.288V75.6H89.104C124.536 75.6 150.68 101.744 150.68 135.8C150.68 169.856 124.536 196 89.104 196ZM65.884 97.444V174.156H87.04C109.572 174.156 125.224 157.988 125.224 135.8C125.224 113.44 109.572 97.444 87.04 97.444H65.884ZM205.733 105.528C235.489 105.528 256.301 130.296 251.485 159.88H183.029C186.125 170.372 195.069 177.768 207.281 177.768C216.913 177.768 224.997 173.124 229.297 165.384L248.389 173.984C240.649 187.916 225.857 197.72 206.593 197.72C179.589 197.72 159.121 177.768 159.121 151.624C159.121 125.48 179.245 105.528 205.733 105.528ZM205.733 125.48C195.241 125.48 186.641 132.188 183.373 142.164H228.265C225.169 132.188 216.741 125.48 205.733 125.48ZM262.382 172.092L285.602 167.276C286.634 175.36 292.31 179.316 301.426 179.316C311.058 179.316 317.078 175.188 317.078 170.028C317.078 153.344 264.962 168.996 264.962 133.564C264.962 117.568 280.614 105.528 301.426 105.528C322.582 105.528 336.686 115.676 339.266 131.156L316.218 135.972C315.014 127.888 309.682 123.932 301.426 123.932C294.03 123.932 288.354 127.372 288.354 132.532C288.354 149.388 340.47 133.736 340.47 169.684C340.47 185.68 323.098 197.72 301.426 197.72C279.41 197.72 264.962 187.572 262.382 172.092ZM351.47 82.652C351.47 74.912 357.834 68.72 365.574 68.72C373.142 68.72 379.506 74.912 379.506 82.652C379.506 90.22 373.142 96.584 365.574 96.584C357.834 96.584 351.47 90.22 351.47 82.652ZM377.098 196H353.878V107.248H377.098V196ZM463.126 131.5V107.248H486.346V186.024C486.346 212.168 465.878 232.12 438.874 232.12C420.126 232.12 405.162 222.316 397.594 208.212L418.406 197.204C422.534 205.632 429.414 210.964 438.874 210.964C452.29 210.964 463.126 200.644 463.126 186.024V168.996C457.966 184.476 446.098 194.968 430.446 194.968C408.602 194.968 392.262 175.532 392.262 150.248C392.262 124.964 408.602 105.528 430.446 105.528C446.098 105.528 457.966 116.02 463.126 131.5ZM439.562 173.812C453.15 173.812 463.126 163.664 463.126 150.248C463.126 136.832 453.15 126.856 439.562 126.856C426.49 126.856 416.342 136.832 416.342 150.248C416.342 163.664 426.49 173.812 439.562 173.812ZM558.718 105.528C578.67 105.528 591.57 121.008 591.57 142.164V196H568.35V146.292C568.35 134.768 560.094 126.684 549.086 126.684C536.702 126.684 528.102 134.768 528.102 146.292V196H504.882V107.248H528.102V129.952C532.746 114.988 544.098 105.528 558.718 105.528ZM741.245 196H661.093V75.6H741.245V97.444H685.689V124.964H739.525V146.636H685.689V174.156H741.245V196ZM813.119 107.248H840.123L807.959 151.108L840.123 196H811.571L793.511 167.964L774.935 196H747.931L780.095 152.14L747.931 107.248H776.483L794.543 135.284L813.119 107.248ZM907.301 105.528C929.317 105.528 945.485 125.48 945.485 151.624C945.485 177.768 929.317 197.72 907.301 197.72C891.477 197.72 879.781 186.884 874.621 170.544V230.4H851.401V107.248H874.621V132.704C879.781 116.364 891.477 105.528 907.301 105.528ZM898.873 176.564C911.429 176.564 921.405 165.9 921.405 151.624C921.405 137.52 911.429 126.856 898.873 126.856C884.769 126.856 874.621 137.52 874.621 151.624C874.621 165.9 884.769 176.564 898.873 176.564ZM983.801 196H960.581V68.72H983.801V196ZM998.965 151.624C998.965 125.48 1019.43 105.528 1046.44 105.528C1073.44 105.528 1093.91 125.48 1093.91 151.624C1093.91 177.768 1073.44 197.72 1046.44 197.72C1019.43 197.72 998.965 177.768 998.965 151.624ZM1023.05 151.624C1023.05 165.9 1033.19 176.564 1046.44 176.564C1059.85 176.564 1069.83 165.9 1069.83 151.624C1069.83 137.52 1059.85 126.856 1046.44 126.856C1033.19 126.856 1023.05 137.52 1023.05 151.624ZM1132.29 107.248V130.296C1138.31 107.248 1152.41 102.776 1165.48 106.904V128.92C1146.73 122.384 1132.29 130.984 1132.29 146.292V196H1109.07V107.248H1132.29ZM1214.72 105.528C1244.48 105.528 1265.29 130.296 1260.47 159.88H1192.02C1195.11 170.372 1204.06 177.768 1216.27 177.768C1225.9 177.768 1233.99 173.124 1238.29 165.384L1257.38 173.984C1249.64 187.916 1234.85 197.72 1215.58 197.72C1188.58 197.72 1168.11 177.768 1168.11 151.624C1168.11 125.48 1188.23 105.528 1214.72 105.528ZM1214.72 125.48C1204.23 125.48 1195.63 132.188 1192.36 142.164H1237.25C1234.16 132.188 1225.73 125.48 1214.72 125.48ZM1299.75 107.248V130.296C1305.77 107.248 1319.87 102.776 1332.95 106.904V128.92C1314.2 122.384 1299.75 130.984 1299.75 146.292V196H1276.53V107.248H1299.75Z" fill="black"/>
<path d="M1499.85 43.5022C1500.1 43.5015 1500.35 43.5007 1500.6 43.5C1505.12 43.4986 1509.41 43.8888 1513.85 44.6939C1514.34 44.7748 1514.83 44.8554 1515.32 44.9357C1527.07 46.9717 1538.6 52.3983 1547.84 59.8923C1548.1 60.0929 1548.35 60.2934 1548.61 60.5001C1550.51 62.0228 1552.31 63.6487 1554.08 65.3223C1554.41 65.6376 1554.75 65.9502 1555.09 66.2621C1556.67 67.7745 1557.98 69.4986 1559.31 71.2337C1559.73 71.7819 1560.16 72.3238 1560.59 72.865C1562.95 75.8515 1564.99 78.9882 1566.91 82.2755C1567.03 82.4748 1567.14 82.6741 1567.26 82.8795C1576.92 99.5846 1578.53 120.19 1573.61 138.596C1573.32 139.63 1573.02 140.66 1572.71 141.688C1572.6 142.059 1572.6 142.059 1572.49 142.437C1569.58 151.94 1564.61 160.3 1558.19 167.836C1558.06 167.988 1557.93 168.14 1557.8 168.296C1557.54 168.596 1557.29 168.895 1557.03 169.193C1556.73 169.544 1556.44 169.896 1556.14 170.25C1555.2 171.362 1554.19 172.327 1553.08 173.271C1552.57 173.718 1552.1 174.185 1551.62 174.675C1550.36 175.95 1548.98 177.059 1547.57 178.164C1547.33 178.353 1547.33 178.353 1547.08 178.545C1530.97 191.134 1510.98 196.538 1490.71 194.184C1475.88 192.287 1461.38 186.036 1450.3 175.953C1449.25 176.386 1448.59 177.035 1447.8 177.828C1447.67 177.962 1447.53 178.096 1447.39 178.234C1446.95 178.676 1446.51 179.119 1446.07 179.563C1445.76 179.871 1445.46 180.178 1445.15 180.486C1444.5 181.13 1443.86 181.775 1443.22 182.42C1442.4 183.249 1441.57 184.075 1440.74 184.901C1440.11 185.536 1439.48 186.172 1438.84 186.807C1438.54 187.113 1438.23 187.418 1437.93 187.722C1437.5 188.148 1437.08 188.574 1436.66 189C1436.41 189.243 1436.17 189.485 1435.92 189.735C1435.36 190.278 1435.36 190.278 1435.1 190.875C1435.34 190.983 1435.34 190.983 1435.6 191.093C1436.24 191.45 1436.6 191.797 1437.07 192.361C1437.2 192.522 1437.34 192.684 1437.48 192.851C1438.27 193.921 1438.48 194.729 1438.54 196.072C1438.19 197.764 1436.67 199.049 1435.49 200.221C1435.31 200.404 1435.13 200.587 1434.94 200.775C1434.34 201.384 1433.73 201.992 1433.12 202.6C1432.68 203.037 1432.24 203.475 1431.81 203.913C1430.62 205.1 1429.44 206.285 1428.25 207.47C1427.01 208.71 1425.77 209.951 1424.53 211.192C1422.31 213.409 1420.09 215.624 1417.88 217.839C1415.87 219.847 1413.86 221.857 1411.85 223.868C1409.52 226.204 1407.18 228.539 1404.85 230.873C1403.61 232.108 1402.38 233.343 1401.14 234.579C1399.98 235.741 1398.82 236.901 1397.66 238.06C1397.23 238.487 1396.8 238.913 1396.38 239.34C1395.8 239.922 1395.22 240.502 1394.63 241.082C1394.38 241.338 1394.38 241.338 1394.12 241.598C1393.96 241.753 1393.81 241.908 1393.65 242.068C1393.44 242.269 1393.44 242.269 1393.24 242.474C1392.52 243.075 1391.88 243.353 1390.95 243.5C1388.45 243.162 1386.78 240.993 1385.11 239.274C1384.46 238.612 1383.8 237.986 1383.09 237.386C1378.43 233.395 1378.43 233.395 1378 230.685C1378.12 228.554 1380.28 226.819 1381.71 225.401C1381.89 225.22 1382.07 225.039 1382.25 224.853C1382.84 224.262 1383.43 223.674 1384.02 223.086C1384.43 222.674 1384.85 222.262 1385.26 221.85C1386.12 220.991 1386.98 220.132 1387.84 219.275C1388.94 218.173 1390.04 217.069 1391.14 215.965C1391.99 215.115 1392.84 214.268 1393.69 213.42C1394.1 213.013 1394.5 212.606 1394.91 212.198C1395.47 211.631 1396.04 211.066 1396.61 210.502C1396.78 210.332 1396.95 210.162 1397.12 209.988C1398.28 208.837 1398.28 208.837 1398.9 208.837C1398.99 208.564 1399.08 208.29 1399.17 208.008C1399.56 207.642 1399.56 207.642 1400.04 207.266C1400.78 206.656 1401.41 206.031 1402.02 205.297C1402.95 204.199 1403.99 203.269 1405.08 202.335C1405.64 201.811 1406.11 201.308 1406.6 200.728C1408.07 199.032 1409.68 197.459 1411.27 195.87C1411.61 195.528 1411.95 195.186 1412.29 194.844C1413 194.132 1413.71 193.42 1414.42 192.709C1415.33 191.799 1416.24 190.886 1417.15 189.974C1417.85 189.269 1418.55 188.565 1419.26 187.862C1419.59 187.526 1419.93 187.19 1420.26 186.853C1420.73 186.383 1421.2 185.914 1421.67 185.447C1421.81 185.308 1421.94 185.17 1422.08 185.028C1423.2 183.921 1424.07 183.207 1425.65 183C1427.32 183.063 1428.52 184.061 1429.71 185.159C1429.85 185.313 1429.98 185.466 1430.12 185.625C1431.22 185.195 1431.87 184.437 1432.62 183.575C1434.94 181.004 1437.41 178.584 1439.86 176.143C1440.34 175.667 1440.82 175.191 1441.3 174.715C1442.45 173.561 1443.61 172.408 1444.77 171.256C1444.29 170.23 1443.7 169.566 1442.9 168.751C1433.15 158.368 1426.56 143.622 1424.87 129.529C1424.8 129.004 1424.8 129.004 1424.73 128.468C1424.33 125.243 1424.21 122.053 1424.22 118.804C1424.22 118.545 1424.22 118.287 1424.22 118.021C1424.26 102.67 1429.08 87.5236 1438.14 75.0908C1438.34 74.8108 1438.34 74.8108 1438.54 74.5252C1440.18 72.2571 1441.88 70.1138 1443.81 68.0853C1444.3 67.5626 1444.75 67.0436 1445.2 66.4909C1445.76 65.8332 1446.29 65.2926 1446.95 64.7455C1447.67 64.1434 1448.33 63.5128 1448.99 62.8403C1449.99 61.8265 1451.07 60.9568 1452.21 60.0996C1452.52 59.8683 1452.52 59.8683 1452.83 59.6324C1464.48 50.8929 1477.28 45.6621 1491.75 43.8649C1491.96 43.8362 1492.17 43.8075 1492.39 43.7779C1494.86 43.4803 1497.36 43.5091 1499.85 43.5022ZM1487.32 50.7733C1487.05 50.8296 1486.78 50.886 1486.5 50.9441C1477.51 52.8443 1468.56 56.1259 1461.07 61.5504C1460.9 61.6721 1460.74 61.7939 1460.56 61.9194C1456.75 64.6962 1453.18 67.7181 1449.74 70.9458C1449.57 71.1057 1449.39 71.2656 1449.21 71.4304C1446.26 74.233 1443.98 77.7969 1441.73 81.1702C1441.62 81.3369 1441.51 81.5037 1441.39 81.6755C1435.99 89.7526 1432.79 98.9573 1431.23 108.527C1431.18 108.832 1431.13 109.137 1431.07 109.451C1430.61 112.455 1430.58 115.425 1430.59 118.458C1430.59 118.721 1430.59 118.985 1430.59 119.256C1430.67 136.105 1436.68 152.816 1448.36 165.176C1448.7 165.56 1449.03 165.946 1449.36 166.333C1450.93 168.123 1452.6 169.663 1454.46 171.152C1454.99 171.581 1455.51 172.018 1456.03 172.465C1459.66 175.608 1463.75 178.124 1467.98 180.375C1468.24 180.515 1468.24 180.515 1468.51 180.659C1484.11 189.015 1503.07 190.576 1519.93 185.582C1529.95 182.52 1539.36 177.656 1547.01 170.427C1547.36 170.126 1547.72 169.826 1548.07 169.528C1550.73 167.205 1553.16 164.661 1555.3 161.86C1555.42 161.716 1555.53 161.572 1555.65 161.423C1562.42 152.742 1566.38 142.836 1568.71 132.154C1568.75 131.937 1568.8 131.72 1568.85 131.496C1572.15 116.267 1568.96 100.386 1561.94 86.6969C1561.82 86.4635 1561.7 86.2301 1561.57 85.9896C1559.09 81.1627 1555.87 76.9209 1552.26 72.8801C1551.93 72.4965 1551.93 72.4965 1551.58 72.1051C1549.39 69.6402 1547.11 67.4652 1544.53 65.4191C1544.13 65.0947 1544.13 65.0947 1543.72 64.7638C1535.01 57.8447 1524.68 53.5009 1513.87 51.1014C1513.63 51.0475 1513.39 50.9937 1513.14 50.9382C1508.81 50.0255 1504.57 49.8412 1500.16 49.8579C1499.74 49.8588 1499.73 49.8588 1499.3 49.8597C1495.26 49.8734 1491.29 49.9394 1487.32 50.7733Z" fill="#003087"/>
<path d="M1510.92 82.4634C1511.1 82.4634 1511.28 82.4634 1511.47 82.4634C1511.93 82.9239 1512.39 83.3845 1512.85 83.845C1513.45 84.2029 1513.45 84.2029 1513.96 84.3977C1513.68 85.3924 1513.22 86.0226 1512.54 86.7703C1511.44 88.0088 1510.45 89.3164 1509.47 90.6498C1507.51 93.2819 1505.5 95.8701 1503.45 98.4271C1501.98 100.251 1500.53 102.081 1499.14 103.962C1498.63 104.65 1498.11 105.334 1497.59 106.016C1497.44 106.217 1497.29 106.418 1497.13 106.625C1496.83 107.023 1496.52 107.42 1496.22 107.816C1496.08 107.997 1495.95 108.177 1495.8 108.363C1495.62 108.605 1495.62 108.605 1495.43 108.852C1495.12 109.263 1495.12 109.263 1495.17 109.821C1495.6 110.206 1496.04 110.57 1496.5 110.926C1497.61 111.815 1498.68 112.722 1499.73 113.689C1500.96 114.826 1502.24 115.892 1503.54 116.946C1504.27 117.546 1504.97 118.166 1505.67 118.801C1506.83 119.856 1508.02 120.849 1509.24 121.834C1510.42 122.807 1511.57 123.815 1512.72 124.828C1513.92 125.885 1515.15 126.813 1516.44 127.782C1516.35 113.83 1516.26 99.878 1516.17 85.503C1517.44 85.503 1518.72 85.503 1520.04 85.503C1520.04 99.7288 1520.04 113.954 1520.04 128.611C1523.77 127.061 1527.51 125.511 1531.37 123.914C1531.73 123.822 1532.09 123.731 1532.47 123.637C1532.75 124.178 1533.03 124.719 1533.3 125.261C1533.45 125.562 1533.61 125.863 1533.77 126.174C1534.13 126.953 1534.13 126.953 1534.13 127.506C1529.57 129.33 1525.01 131.154 1520.31 133.033C1520.22 140.601 1520.13 148.17 1520.04 155.968C1518.85 155.968 1517.67 155.968 1516.44 155.968C1516.11 140.939 1516.11 140.939 1516.17 134.138C1515.92 134.216 1515.68 134.295 1515.43 134.376C1503.04 138.36 1490.58 142.105 1478.12 145.83C1477.84 145.913 1477.57 145.996 1477.29 146.081C1476.53 146.308 1475.77 146.534 1475.01 146.76C1474.79 146.826 1474.57 146.892 1474.34 146.96C1472.85 147.402 1472.85 147.402 1472.23 147.402C1471.77 146.217 1471.32 145.031 1470.85 143.81C1475.47 142.315 1480.12 140.95 1484.78 139.579C1485.87 139.257 1486.96 138.935 1488.05 138.612C1488.38 138.516 1488.38 138.516 1488.71 138.417C1489.15 138.288 1489.59 138.158 1490.03 138.028C1490.69 137.835 1491.34 137.641 1492 137.448C1495.45 136.428 1498.9 135.406 1502.35 134.378C1502.88 134.221 1503.41 134.063 1503.94 133.906C1507.01 132.994 1510.07 132.063 1513.13 131.098C1513.19 130.493 1513.19 130.493 1512.63 130.035C1511.15 128.725 1509.63 127.457 1508.09 126.212C1507.05 125.34 1506.05 124.415 1505.05 123.492C1504.06 122.602 1503.02 121.769 1501.99 120.933C1501.26 120.333 1500.56 119.713 1499.86 119.078C1498.68 117.998 1497.45 116.985 1496.2 115.978C1495.18 115.132 1494.2 114.242 1493.23 113.344C1492.71 112.847 1492.71 112.847 1492.13 112.584C1492.05 112.744 1491.98 112.904 1491.9 113.068C1491.58 113.681 1491.22 114.218 1490.82 114.778C1490.67 114.984 1490.53 115.189 1490.37 115.4C1490.22 115.616 1490.06 115.833 1489.9 116.055C1489.74 116.279 1489.57 116.503 1489.41 116.734C1488.36 118.174 1487.27 119.575 1486.13 120.943C1484.06 123.422 1482.07 125.965 1480.15 128.556C1478.76 130.414 1477.34 132.239 1475.91 134.065C1475.23 134.944 1474.54 135.828 1473.87 136.715C1473.32 137.424 1472.78 138.13 1472.23 138.836C1472.06 139.057 1472.06 139.057 1471.89 139.282C1471.56 139.717 1471.22 140.149 1470.88 140.58C1470.69 140.83 1470.5 141.079 1470.3 141.337C1469.74 141.875 1469.74 141.875 1468.64 141.875C1467.99 141.513 1467.99 141.513 1467.32 141.046C1467.1 140.892 1466.88 140.739 1466.66 140.58C1466.49 140.46 1466.32 140.341 1466.15 140.217C1466.51 139.447 1466.92 138.786 1467.44 138.112C1467.65 137.83 1467.65 137.83 1467.88 137.541C1468.03 137.341 1468.18 137.142 1468.34 136.936C1468.51 136.727 1468.67 136.519 1468.83 136.304C1470.2 134.531 1471.58 132.769 1472.97 131.011C1473.58 130.235 1474.19 129.458 1474.8 128.68C1474.93 128.523 1475.05 128.366 1475.18 128.204C1475.89 127.3 1476.6 126.393 1477.3 125.483C1478.87 123.456 1480.45 121.44 1482.07 119.458C1483.57 117.628 1485 115.753 1486.41 113.852C1487.18 112.821 1487.97 111.813 1488.78 110.816C1489.14 110.387 1489.14 110.387 1489.09 109.821C1488.65 109.43 1488.2 109.059 1487.74 108.698C1486.69 107.856 1485.66 107.001 1484.66 106.09C1483.72 105.229 1482.76 104.407 1481.76 103.603C1480.53 102.605 1479.35 101.562 1478.18 100.494C1477.21 99.6329 1476.2 98.8243 1475.19 98.0094C1474.45 97.3943 1473.74 96.7577 1473.02 96.1074C1471.8 94.9885 1470.52 93.9612 1469.19 92.9641C1469.35 91.9525 1469.77 91.4317 1470.45 90.6843C1470.63 90.4891 1470.8 90.2939 1470.99 90.0928C1471.12 89.946 1471.26 89.7993 1471.4 89.6481C1472.53 90.2682 1473.4 91.0093 1474.34 91.8933C1475.65 93.1218 1477 94.2733 1478.41 95.4015C1479.13 95.9976 1479.83 96.6154 1480.52 97.2473C1481.46 98.108 1482.43 98.9307 1483.42 99.7343C1484.65 100.73 1485.83 101.77 1487 102.835C1488.01 103.738 1489.07 104.59 1490.12 105.441C1490.74 105.952 1490.74 105.952 1491.3 106.504C1491.98 106.445 1492.31 106.318 1492.8 105.831C1492.93 105.662 1493.05 105.493 1493.18 105.319C1493.32 105.13 1493.46 104.94 1493.61 104.744C1493.76 104.539 1493.91 104.333 1494.06 104.121C1494.38 103.688 1494.7 103.256 1495.03 102.824C1495.19 102.606 1495.35 102.387 1495.52 102.163C1496.21 101.245 1496.93 100.351 1497.65 99.458C1498.82 98.008 1499.96 96.5384 1501.09 95.0539C1502.43 93.2848 1503.82 91.5543 1505.22 89.837C1506.53 88.2431 1507.76 86.6049 1508.98 84.9504C1509.34 84.4652 1509.71 83.9815 1510.07 83.4996C1510.22 83.2987 1510.37 83.0978 1510.53 82.8908C1510.66 82.7498 1510.78 82.6087 1510.92 82.4634Z" fill="#003087"/>
<path d="M1461.18 94.6218C1462.27 94.6218 1463.37 94.6218 1464.49 94.6218C1464.49 109.486 1464.49 124.35 1464.49 139.665C1463.4 139.665 1462.31 139.665 1461.18 139.665C1461.18 124.801 1461.18 109.936 1461.18 94.6218Z" fill="#003087"/>
<path d="M1508.43 75.2788C1508.7 77.1938 1508.7 77.1938 1508.98 79.1475C1508.01 79.5384 1507.37 79.7776 1506.38 79.9279C1506.14 79.9659 1505.89 80.004 1505.64 80.0431C1505.37 80.0838 1505.1 80.1245 1504.82 80.1665C1504.19 80.2639 1503.56 80.3614 1502.94 80.459C1502.58 80.5135 1502.23 80.5679 1501.86 80.624C1499.84 80.9366 1497.82 81.26 1495.79 81.582C1495.02 81.7045 1494.25 81.8264 1493.48 81.9483C1490.59 82.4067 1487.7 82.8756 1484.82 83.3562C1484.2 83.4589 1483.58 83.5615 1482.96 83.6641C1481.77 83.8617 1480.58 84.0616 1479.38 84.2627C1478.84 84.3535 1478.29 84.4443 1477.74 84.5349C1477.5 84.5772 1477.25 84.6194 1477 84.6629C1475.57 84.8969 1474.23 84.9907 1472.78 84.9505C1472.75 84.7407 1472.71 84.5309 1472.67 84.3147C1472.62 84.0401 1472.57 83.7655 1472.52 83.4825C1472.48 83.21 1472.43 82.9375 1472.38 82.6567C1472.24 81.8882 1472.24 81.8882 1471.95 81.0818C1472.24 81.0388 1472.52 80.9959 1472.82 80.9516C1478.5 80.091 1484.18 79.195 1489.84 78.1997C1493.47 77.5662 1497.11 76.9719 1500.76 76.4063C1502.45 76.1413 1504.14 75.846 1505.82 75.5313C1506.72 75.3681 1507.52 75.2788 1508.43 75.2788Z" fill="#003087"/>
<path d="M1472.51 148.784C1475.03 149.431 1477.48 150.242 1479.95 151.076C1484.7 152.682 1489.47 154.237 1494.25 155.761C1494.54 155.854 1494.83 155.947 1495.13 156.043C1496.28 156.408 1497.43 156.774 1498.57 157.138C1501.09 157.94 1503.6 158.749 1506.12 159.561C1506.3 159.619 1506.48 159.678 1506.67 159.738C1507.62 160.047 1508.58 160.357 1509.53 160.666C1509.32 161.793 1509.03 162.881 1508.71 163.982C1507.06 163.635 1505.44 163.226 1503.82 162.745C1503.59 162.678 1503.37 162.611 1503.13 162.542C1502.38 162.321 1501.63 162.098 1500.88 161.875C1500.62 161.798 1500.36 161.72 1500.09 161.641C1490.68 158.85 1481.28 155.983 1471.95 152.929C1472.14 151.561 1472.32 150.193 1472.51 148.784Z" fill="#003087"/>
<path d="M1525.01 83.5688C1525.62 84.5839 1526.21 85.6042 1526.81 86.6258C1526.98 86.9127 1527.15 87.1997 1527.33 87.4953C1528.88 90.1855 1528.88 90.1855 1528.6 91.8589C1528.29 92.3943 1528.29 92.3943 1527.77 92.6879C1526.94 92.7915 1526.94 92.7915 1526.11 92.6879C1525.16 91.8863 1524.64 90.8244 1524.04 89.7519C1523.93 89.5543 1523.82 89.3568 1523.71 89.1533C1522.95 87.7854 1522.38 86.4639 1521.97 84.9505C1522.37 84.7188 1522.78 84.4889 1523.18 84.2597C1523.4 84.1314 1523.63 84.0032 1523.86 83.8711C1524.46 83.5688 1524.46 83.5688 1525.01 83.5688Z" fill="#003087"/>
<path d="M1538.83 131.098C1539.01 131.281 1539.19 131.463 1539.38 131.651C1539.33 133.489 1538.54 135.032 1537.77 136.677C1537.65 136.949 1537.53 137.221 1537.41 137.501C1537.29 137.763 1537.17 138.025 1537.04 138.295C1536.94 138.531 1536.83 138.768 1536.72 139.012C1536.3 139.737 1535.88 140.238 1535.24 140.77C1533.77 140.684 1533.77 140.684 1533.3 140.217C1533.38 138.23 1534.09 136.664 1534.92 134.881C1535.05 134.608 1535.17 134.335 1535.3 134.053C1536.76 130.879 1536.76 130.879 1538.83 131.098Z" fill="#003087"/>
<path d="M1530.95 145.951C1531.64 146.02 1531.64 146.02 1532.19 146.573C1532.15 148.47 1531.49 149.835 1530.59 151.478C1530.47 151.709 1530.35 151.94 1530.22 152.179C1529.06 154.349 1529.06 154.349 1528.05 155.139C1527.32 155.243 1527.32 155.243 1526.67 155.139C1526.49 154.957 1526.3 154.775 1526.11 154.587C1526.18 152.994 1526.72 151.805 1527.44 150.424C1527.54 150.236 1527.63 150.048 1527.73 149.854C1529.66 146.08 1529.66 146.08 1530.95 145.951Z" fill="#003087"/>
<path d="M1530.59 96.5911C1531.64 96.8329 1531.64 96.8329 1532.2 97.5053C1533.95 100.349 1533.95 100.349 1533.58 102.083C1533.25 102.619 1533.25 102.619 1532.75 102.912C1532.07 103.05 1532.07 103.05 1531.37 102.912C1530.23 101.849 1529.38 100.235 1528.88 98.7672C1529 97.4479 1529.27 96.9531 1530.59 96.5911Z" fill="#003087"/>
<path d="M1536.89 107.333C1537.48 108.003 1537.87 108.751 1538.27 109.544C1538.44 109.852 1538.6 110.16 1538.78 110.477C1539.1 111.202 1539.1 111.202 1539.1 111.755C1538.19 112.12 1537.28 112.484 1536.34 112.86C1536.01 112.391 1535.69 111.918 1535.37 111.444C1535.19 111.181 1535.01 110.918 1534.83 110.647C1534.36 109.726 1534.3 109.182 1534.41 108.162C1535.01 107.15 1535.79 107.09 1536.89 107.333Z" fill="#003087"/>
<path d="M1462.97 97.6619C1469 97.6619 1473.89 92.775 1473.89 86.7466C1473.89 80.7182 1469 75.8313 1462.97 75.8313C1456.94 75.8313 1452.06 80.7182 1452.06 86.7466C1452.06 92.775 1456.94 97.6619 1462.97 97.6619Z" fill="#00B2E2"/>
<path d="M1519.07 86.885C1525.1 86.885 1529.98 81.9981 1529.98 75.9697C1529.98 69.9414 1525.1 65.0544 1519.07 65.0544C1513.04 65.0544 1508.15 69.9414 1508.15 75.9697C1508.15 81.9981 1513.04 86.885 1519.07 86.885Z" fill="#00B2E2"/>
<path d="M1543.11 133.033C1549.14 133.033 1554.03 128.146 1554.03 122.118C1554.03 116.09 1549.14 111.203 1543.11 111.203C1537.08 111.203 1532.2 116.09 1532.2 122.118C1532.2 128.146 1537.08 133.033 1543.11 133.033Z" fill="#00B2E2"/>
<path d="M1519.07 173.654C1525.1 173.654 1529.98 168.767 1529.98 162.739C1529.98 156.711 1525.1 151.824 1519.07 151.824C1513.04 151.824 1508.15 156.711 1508.15 162.739C1508.15 168.767 1513.04 173.654 1519.07 173.654Z" fill="#00B2E2"/>
<path d="M1461.59 160.943C1467.62 160.943 1472.51 156.056 1472.51 150.028C1472.51 144 1467.62 139.113 1461.59 139.113C1455.56 139.113 1450.68 144 1450.68 150.028C1450.68 156.056 1455.56 160.943 1461.59 160.943Z" fill="#00B2E2"/>
</svg>
