<svg width="1594" height="277" viewBox="0 0 1594 277" fill="none" xmlns="http://www.w3.org/2000/svg">
<rect width="1594" height="277" fill="white"/>
<path d="M85.492 196H43.008V75.6H85.492C120.236 75.6 146.38 101.744 146.38 135.8C146.38 169.856 120.236 196 85.492 196ZM56.424 87.812V183.788H84.632C112.152 183.788 132.62 163.148 132.62 135.8C132.62 108.28 112.152 87.812 84.632 87.812H56.424ZM203.718 107.248C230.378 107.248 250.33 128.576 248.266 156.44H171.726C173.618 173.64 187.034 186.196 204.75 186.196C218.338 186.196 229.346 178.972 234.85 167.62L245.858 172.264C238.806 187.228 223.842 197.72 204.578 197.72C178.606 197.72 158.826 178.284 158.826 152.484C158.826 126.856 178.262 107.248 203.718 107.248ZM203.718 118.772C187.722 118.772 174.994 130.124 172.07 145.776H235.194C232.614 130.468 220.23 118.772 203.718 118.772ZM262.086 173.468L275.158 170.888C276.878 181.036 284.79 186.884 297.69 186.884C310.934 186.884 320.222 180.864 320.222 172.436C320.222 148.528 264.666 166.072 264.666 132.532C264.666 117.912 278.426 107.248 297.69 107.248C316.954 107.248 328.994 116.88 331.746 131.5L318.846 134.08C316.954 123.932 309.558 118.256 297.69 118.256C285.994 118.256 277.566 123.76 277.566 132.016C277.566 154.204 333.294 137.176 333.294 172.092C333.294 187.056 317.986 197.72 297.69 197.72C277.566 197.72 264.838 188.088 262.086 173.468ZM348.331 83.168C348.331 78.352 351.943 74.74 356.759 74.74C361.403 74.74 365.187 78.352 365.187 83.168C365.187 87.64 361.403 91.424 356.759 91.424C351.943 91.424 348.331 87.64 348.331 83.168ZM363.123 196H350.223V108.968H363.123V196ZM459.98 124.448V108.968H472.88V186.884C472.88 212.684 453.1 232.12 427.128 232.12C408.036 232.12 393.072 221.628 386.02 206.664L397.716 201.16C403.048 212.684 413.712 220.252 427.128 220.252C445.704 220.252 459.98 205.976 459.98 186.884V179.488C452.412 190.152 440.372 196.688 425.752 196.688C400.64 196.688 381.72 177.424 381.72 151.968C381.72 126.512 400.64 107.248 425.752 107.248C440.372 107.248 452.412 113.784 459.98 124.448ZM427.472 184.82C446.048 184.82 459.98 170.544 459.98 151.968C459.98 133.392 446.048 119.288 427.472 119.288C409.068 119.288 394.964 133.392 394.964 151.968C394.964 170.544 409.068 184.82 427.472 184.82ZM537.672 107.248C559.344 107.248 574.996 123.244 574.996 144.744V196H562.096V146.292C562.096 130.812 550.572 119.116 534.92 119.116C519.44 119.116 507.744 130.812 507.744 146.292V196H494.844V108.968H507.744V122.556C514.108 113.268 524.772 107.248 537.672 107.248ZM721.995 196H647.863V75.6H721.995V87.812H661.279V129.78H720.275V141.82H661.279V183.788H721.995V196ZM797.391 108.968H812.699L779.503 152.312L812.699 196H796.703L771.419 161.6L745.791 196H730.483L763.679 152.656L730.483 108.968H746.651L771.763 143.196L797.391 108.968ZM873.71 107.248C898.822 107.248 917.742 126.856 917.742 152.484C917.742 178.284 898.822 197.72 873.71 197.72C859.09 197.72 847.05 191.012 839.482 180.348V230.4H826.582V108.968H839.482V124.62C847.05 113.956 859.09 107.248 873.71 107.248ZM871.99 185.68C890.566 185.68 904.498 171.404 904.498 152.484C904.498 133.564 890.566 119.288 871.99 119.288C853.586 119.288 839.482 133.564 839.482 152.484C839.482 171.404 853.586 185.68 871.99 185.68ZM949.166 196H936.266V68.72H949.166V196ZM967.763 152.484C967.763 126.856 987.543 107.248 1013.52 107.248C1039.49 107.248 1059.27 126.856 1059.27 152.484C1059.27 178.284 1039.49 197.72 1013.52 197.72C987.543 197.72 967.763 178.284 967.763 152.484ZM981.007 152.484C981.007 171.404 995.111 185.68 1013.52 185.68C1032.09 185.68 1046.02 171.404 1046.02 152.484C1046.02 133.564 1032.09 119.288 1013.52 119.288C995.111 119.288 981.007 133.564 981.007 152.484ZM1090.76 108.968V122.9C1098.16 111.892 1111.06 105.356 1126.2 107.936V120.492C1106.76 116.192 1090.76 127.888 1090.76 146.292V196H1077.86V108.968H1090.76ZM1173.74 107.248C1200.4 107.248 1220.35 128.576 1218.29 156.44H1141.75C1143.64 173.64 1157.05 186.196 1174.77 186.196C1188.36 186.196 1199.37 178.972 1204.87 167.62L1215.88 172.264C1208.83 187.228 1193.86 197.72 1174.6 197.72C1148.63 197.72 1128.85 178.284 1128.85 152.484C1128.85 126.856 1148.28 107.248 1173.74 107.248ZM1173.74 118.772C1157.74 118.772 1145.01 130.124 1142.09 145.776H1205.21C1202.63 130.468 1190.25 118.772 1173.74 118.772ZM1250.17 108.968V122.9C1257.56 111.892 1270.46 105.356 1285.6 107.936V120.492C1266.16 116.192 1250.17 127.888 1250.17 146.292V196H1237.27V108.968H1250.17Z" fill="black"/>
<path d="M1452.85 43.5022C1453.1 43.5015 1453.35 43.5007 1453.6 43.5C1458.12 43.4986 1462.41 43.8888 1466.85 44.6939C1467.34 44.7748 1467.83 44.8554 1468.32 44.9357C1480.07 46.9717 1491.6 52.3983 1500.84 59.8923C1501.1 60.0929 1501.35 60.2934 1501.61 60.5001C1503.51 62.0228 1505.31 63.6487 1507.08 65.3223C1507.41 65.6376 1507.75 65.9502 1508.09 66.2621C1509.67 67.7745 1510.98 69.4986 1512.31 71.2337C1512.73 71.7819 1513.16 72.3238 1513.59 72.865C1515.95 75.8515 1517.99 78.9882 1519.91 82.2755C1520.03 82.4748 1520.14 82.6741 1520.26 82.8795C1529.92 99.5846 1531.53 120.19 1526.61 138.596C1526.32 139.63 1526.02 140.66 1525.71 141.688C1525.6 142.059 1525.6 142.059 1525.49 142.437C1522.58 151.94 1517.61 160.3 1511.19 167.836C1511.06 167.988 1510.93 168.14 1510.8 168.296C1510.54 168.596 1510.29 168.895 1510.03 169.193C1509.73 169.544 1509.44 169.896 1509.14 170.25C1508.2 171.362 1507.19 172.327 1506.08 173.271C1505.57 173.718 1505.1 174.185 1504.62 174.675C1503.36 175.95 1501.98 177.059 1500.57 178.164C1500.33 178.353 1500.33 178.353 1500.08 178.545C1483.97 191.134 1463.98 196.538 1443.71 194.184C1428.88 192.287 1414.38 186.036 1403.3 175.953C1402.25 176.386 1401.59 177.035 1400.8 177.828C1400.67 177.962 1400.53 178.096 1400.39 178.234C1399.95 178.676 1399.51 179.119 1399.07 179.563C1398.76 179.871 1398.46 180.178 1398.15 180.486C1397.5 181.13 1396.86 181.775 1396.22 182.42C1395.4 183.249 1394.57 184.075 1393.74 184.901C1393.11 185.536 1392.48 186.172 1391.84 186.807C1391.54 187.113 1391.23 187.418 1390.93 187.722C1390.5 188.148 1390.08 188.574 1389.66 189C1389.41 189.243 1389.17 189.485 1388.92 189.735C1388.36 190.278 1388.36 190.278 1388.1 190.875C1388.34 190.983 1388.34 190.983 1388.6 191.093C1389.24 191.45 1389.6 191.797 1390.07 192.361C1390.2 192.522 1390.34 192.684 1390.48 192.851C1391.27 193.921 1391.48 194.729 1391.54 196.072C1391.19 197.764 1389.67 199.049 1388.49 200.221C1388.31 200.404 1388.13 200.587 1387.94 200.775C1387.34 201.384 1386.73 201.992 1386.12 202.6C1385.68 203.037 1385.24 203.475 1384.81 203.913C1383.62 205.1 1382.44 206.285 1381.25 207.47C1380.01 208.71 1378.77 209.951 1377.53 211.192C1375.31 213.409 1373.09 215.624 1370.88 217.839C1368.87 219.847 1366.86 221.857 1364.85 223.868C1362.52 226.204 1360.18 228.539 1357.85 230.873C1356.61 232.108 1355.38 233.343 1354.14 234.579C1352.98 235.741 1351.82 236.901 1350.66 238.06C1350.23 238.487 1349.8 238.913 1349.38 239.34C1348.8 239.922 1348.22 240.502 1347.63 241.082C1347.38 241.338 1347.38 241.338 1347.12 241.598C1346.96 241.753 1346.81 241.908 1346.65 242.068C1346.44 242.269 1346.44 242.269 1346.24 242.474C1345.52 243.075 1344.88 243.353 1343.95 243.5C1341.45 243.162 1339.78 240.993 1338.11 239.274C1337.46 238.612 1336.8 237.986 1336.09 237.386C1331.43 233.395 1331.43 233.395 1331 230.685C1331.12 228.554 1333.28 226.819 1334.71 225.401C1334.89 225.22 1335.07 225.039 1335.25 224.853C1335.84 224.262 1336.43 223.674 1337.02 223.086C1337.43 222.674 1337.85 222.262 1338.26 221.85C1339.12 220.991 1339.98 220.132 1340.84 219.275C1341.94 218.173 1343.04 217.069 1344.14 215.965C1344.99 215.115 1345.84 214.268 1346.69 213.42C1347.1 213.013 1347.5 212.606 1347.91 212.198C1348.47 211.631 1349.04 211.066 1349.61 210.502C1349.78 210.332 1349.95 210.162 1350.12 209.988C1351.28 208.837 1351.28 208.837 1351.9 208.837C1351.99 208.564 1352.08 208.29 1352.17 208.008C1352.56 207.642 1352.56 207.642 1353.04 207.266C1353.78 206.656 1354.41 206.031 1355.02 205.297C1355.95 204.199 1356.99 203.269 1358.08 202.335C1358.64 201.811 1359.11 201.308 1359.6 200.728C1361.07 199.032 1362.68 197.459 1364.27 195.87C1364.61 195.528 1364.95 195.186 1365.29 194.844C1366 194.132 1366.71 193.42 1367.42 192.709C1368.33 191.799 1369.24 190.886 1370.15 189.974C1370.85 189.269 1371.55 188.565 1372.26 187.862C1372.59 187.526 1372.93 187.19 1373.26 186.853C1373.73 186.383 1374.2 185.914 1374.67 185.447C1374.81 185.308 1374.94 185.17 1375.08 185.028C1376.2 183.921 1377.07 183.207 1378.65 183C1380.32 183.063 1381.52 184.061 1382.71 185.159C1382.85 185.313 1382.98 185.466 1383.12 185.625C1384.22 185.195 1384.87 184.437 1385.62 183.575C1387.94 181.004 1390.41 178.584 1392.86 176.143C1393.34 175.667 1393.82 175.191 1394.3 174.715C1395.45 173.561 1396.61 172.408 1397.77 171.256C1397.29 170.23 1396.7 169.566 1395.9 168.751C1386.15 158.368 1379.56 143.622 1377.87 129.529C1377.8 129.004 1377.8 129.004 1377.73 128.468C1377.33 125.243 1377.21 122.053 1377.22 118.804C1377.22 118.545 1377.22 118.287 1377.22 118.021C1377.26 102.67 1382.08 87.5236 1391.14 75.0908C1391.34 74.8108 1391.34 74.8108 1391.54 74.5252C1393.18 72.2571 1394.88 70.1138 1396.81 68.0853C1397.3 67.5626 1397.75 67.0436 1398.2 66.4909C1398.76 65.8332 1399.29 65.2926 1399.95 64.7455C1400.67 64.1434 1401.33 63.5128 1401.99 62.8403C1402.99 61.8265 1404.07 60.9568 1405.21 60.0996C1405.52 59.8683 1405.52 59.8683 1405.83 59.6324C1417.48 50.8929 1430.28 45.6621 1444.75 43.8649C1444.96 43.8362 1445.17 43.8075 1445.39 43.7779C1447.86 43.4803 1450.36 43.5091 1452.85 43.5022ZM1440.32 50.7733C1440.05 50.8296 1439.78 50.886 1439.5 50.9441C1430.51 52.8443 1421.56 56.1259 1414.07 61.5504C1413.9 61.6721 1413.74 61.7939 1413.56 61.9194C1409.75 64.6962 1406.18 67.7181 1402.74 70.9458C1402.57 71.1057 1402.39 71.2656 1402.21 71.4304C1399.26 74.233 1396.98 77.7969 1394.73 81.1702C1394.62 81.3369 1394.51 81.5037 1394.39 81.6755C1388.99 89.7526 1385.79 98.9573 1384.23 108.527C1384.18 108.832 1384.13 109.137 1384.07 109.451C1383.61 112.455 1383.58 115.425 1383.59 118.458C1383.59 118.721 1383.59 118.985 1383.59 119.256C1383.67 136.105 1389.68 152.816 1401.36 165.176C1401.7 165.56 1402.03 165.946 1402.36 166.333C1403.93 168.123 1405.6 169.663 1407.46 171.152C1407.99 171.581 1408.51 172.018 1409.03 172.465C1412.66 175.608 1416.75 178.124 1420.98 180.375C1421.24 180.515 1421.24 180.515 1421.51 180.659C1437.11 189.015 1456.07 190.576 1472.93 185.582C1482.95 182.52 1492.36 177.656 1500.01 170.427C1500.36 170.126 1500.72 169.826 1501.07 169.528C1503.73 167.205 1506.16 164.661 1508.3 161.86C1508.42 161.716 1508.53 161.572 1508.65 161.423C1515.42 152.742 1519.38 142.836 1521.71 132.154C1521.75 131.937 1521.8 131.72 1521.85 131.496C1525.15 116.267 1521.96 100.386 1514.94 86.6969C1514.82 86.4635 1514.7 86.2301 1514.57 85.9896C1512.09 81.1627 1508.87 76.9209 1505.26 72.8801C1504.93 72.4965 1504.93 72.4965 1504.58 72.1051C1502.39 69.6402 1500.11 67.4652 1497.53 65.4191C1497.13 65.0947 1497.13 65.0947 1496.72 64.7638C1488.01 57.8447 1477.68 53.5009 1466.87 51.1014C1466.63 51.0475 1466.39 50.9937 1466.14 50.9382C1461.81 50.0255 1457.57 49.8412 1453.16 49.8579C1452.74 49.8588 1452.73 49.8588 1452.3 49.8597C1448.26 49.8734 1444.29 49.9394 1440.32 50.7733Z" fill="#003087"/>
<path d="M1463.92 82.4634C1464.1 82.4634 1464.28 82.4634 1464.47 82.4634C1464.93 82.9239 1465.39 83.3845 1465.85 83.845C1466.45 84.2029 1466.45 84.2029 1466.96 84.3977C1466.68 85.3924 1466.22 86.0226 1465.54 86.7703C1464.44 88.0088 1463.45 89.3164 1462.47 90.6498C1460.51 93.2819 1458.5 95.8701 1456.45 98.4271C1454.98 100.251 1453.53 102.081 1452.14 103.962C1451.63 104.65 1451.11 105.334 1450.59 106.016C1450.44 106.217 1450.29 106.418 1450.13 106.625C1449.83 107.023 1449.52 107.42 1449.22 107.816C1449.08 107.997 1448.95 108.177 1448.8 108.363C1448.62 108.605 1448.62 108.605 1448.43 108.852C1448.12 109.263 1448.12 109.263 1448.17 109.821C1448.6 110.206 1449.04 110.57 1449.5 110.926C1450.61 111.815 1451.68 112.722 1452.73 113.689C1453.96 114.826 1455.24 115.892 1456.54 116.946C1457.27 117.546 1457.97 118.166 1458.67 118.801C1459.83 119.856 1461.02 120.849 1462.24 121.834C1463.42 122.807 1464.57 123.815 1465.72 124.828C1466.92 125.885 1468.15 126.813 1469.44 127.782C1469.35 113.83 1469.26 99.878 1469.17 85.503C1470.44 85.503 1471.72 85.503 1473.04 85.503C1473.04 99.7288 1473.04 113.954 1473.04 128.611C1476.77 127.061 1480.51 125.511 1484.37 123.914C1484.73 123.822 1485.09 123.731 1485.47 123.637C1485.75 124.178 1486.03 124.719 1486.3 125.261C1486.45 125.562 1486.61 125.863 1486.77 126.174C1487.13 126.953 1487.13 126.953 1487.13 127.506C1482.57 129.33 1478.01 131.154 1473.31 133.033C1473.22 140.601 1473.13 148.17 1473.04 155.968C1471.85 155.968 1470.67 155.968 1469.44 155.968C1469.11 140.939 1469.11 140.939 1469.17 134.138C1468.92 134.216 1468.68 134.295 1468.43 134.376C1456.04 138.36 1443.58 142.105 1431.12 145.83C1430.84 145.913 1430.57 145.996 1430.29 146.081C1429.53 146.308 1428.77 146.534 1428.01 146.76C1427.79 146.826 1427.57 146.892 1427.34 146.96C1425.85 147.402 1425.85 147.402 1425.23 147.402C1424.77 146.217 1424.32 145.031 1423.85 143.81C1428.47 142.315 1433.12 140.95 1437.78 139.579C1438.87 139.257 1439.96 138.935 1441.05 138.612C1441.38 138.516 1441.38 138.516 1441.71 138.417C1442.15 138.288 1442.59 138.158 1443.03 138.028C1443.69 137.835 1444.34 137.641 1445 137.448C1448.45 136.428 1451.9 135.406 1455.35 134.378C1455.88 134.221 1456.41 134.063 1456.94 133.906C1460.01 132.994 1463.07 132.063 1466.13 131.098C1466.19 130.493 1466.19 130.493 1465.63 130.035C1464.15 128.725 1462.63 127.457 1461.09 126.212C1460.05 125.34 1459.05 124.415 1458.05 123.492C1457.06 122.602 1456.02 121.769 1454.99 120.933C1454.26 120.333 1453.56 119.713 1452.86 119.078C1451.68 117.998 1450.45 116.985 1449.2 115.978C1448.18 115.132 1447.2 114.242 1446.23 113.344C1445.71 112.847 1445.71 112.847 1445.13 112.584C1445.05 112.744 1444.98 112.904 1444.9 113.068C1444.58 113.681 1444.22 114.218 1443.82 114.778C1443.67 114.984 1443.53 115.189 1443.37 115.4C1443.22 115.616 1443.06 115.833 1442.9 116.055C1442.74 116.279 1442.57 116.503 1442.41 116.734C1441.36 118.174 1440.27 119.575 1439.13 120.943C1437.06 123.422 1435.07 125.965 1433.15 128.556C1431.76 130.414 1430.34 132.239 1428.91 134.065C1428.23 134.944 1427.54 135.828 1426.87 136.715C1426.32 137.424 1425.78 138.13 1425.23 138.836C1425.06 139.057 1425.06 139.057 1424.89 139.282C1424.56 139.717 1424.22 140.149 1423.88 140.58C1423.69 140.83 1423.5 141.079 1423.3 141.337C1422.74 141.875 1422.74 141.875 1421.64 141.875C1420.99 141.513 1420.99 141.513 1420.32 141.046C1420.1 140.892 1419.88 140.739 1419.66 140.58C1419.49 140.46 1419.32 140.341 1419.15 140.217C1419.51 139.447 1419.92 138.786 1420.44 138.112C1420.65 137.83 1420.65 137.83 1420.88 137.541C1421.03 137.341 1421.18 137.142 1421.34 136.936C1421.51 136.727 1421.67 136.519 1421.83 136.304C1423.2 134.531 1424.58 132.769 1425.97 131.011C1426.58 130.235 1427.19 129.458 1427.8 128.68C1427.93 128.523 1428.05 128.366 1428.18 128.204C1428.89 127.3 1429.6 126.393 1430.3 125.483C1431.87 123.456 1433.45 121.44 1435.07 119.458C1436.57 117.628 1438 115.753 1439.41 113.852C1440.18 112.821 1440.97 111.813 1441.78 110.816C1442.14 110.387 1442.14 110.387 1442.09 109.821C1441.65 109.43 1441.2 109.059 1440.74 108.698C1439.69 107.856 1438.66 107.001 1437.66 106.09C1436.72 105.229 1435.76 104.407 1434.76 103.603C1433.53 102.605 1432.35 101.562 1431.18 100.494C1430.21 99.6329 1429.2 98.8243 1428.19 98.0094C1427.45 97.3943 1426.74 96.7577 1426.02 96.1074C1424.8 94.9885 1423.52 93.9612 1422.19 92.9641C1422.35 91.9525 1422.77 91.4317 1423.45 90.6843C1423.63 90.4891 1423.8 90.2939 1423.99 90.0928C1424.12 89.946 1424.26 89.7993 1424.4 89.6481C1425.53 90.2682 1426.4 91.0093 1427.34 91.8933C1428.65 93.1218 1430 94.2733 1431.41 95.4015C1432.13 95.9976 1432.83 96.6154 1433.52 97.2473C1434.46 98.108 1435.43 98.9307 1436.42 99.7343C1437.65 100.73 1438.83 101.77 1440 102.835C1441.01 103.738 1442.07 104.59 1443.12 105.441C1443.74 105.952 1443.74 105.952 1444.3 106.504C1444.98 106.445 1445.31 106.318 1445.8 105.831C1445.93 105.662 1446.05 105.493 1446.18 105.319C1446.32 105.13 1446.46 104.94 1446.61 104.744C1446.76 104.539 1446.91 104.333 1447.06 104.121C1447.38 103.688 1447.7 103.256 1448.03 102.824C1448.19 102.606 1448.35 102.387 1448.52 102.163C1449.21 101.245 1449.93 100.351 1450.65 99.458C1451.82 98.008 1452.96 96.5384 1454.09 95.0539C1455.43 93.2848 1456.82 91.5543 1458.22 89.837C1459.53 88.2431 1460.76 86.6049 1461.98 84.9504C1462.34 84.4652 1462.71 83.9815 1463.07 83.4996C1463.22 83.2987 1463.37 83.0978 1463.53 82.8908C1463.66 82.7498 1463.78 82.6087 1463.92 82.4634Z" fill="#003087"/>
<path d="M1414.18 94.6218C1415.27 94.6218 1416.37 94.6218 1417.49 94.6218C1417.49 109.486 1417.49 124.35 1417.49 139.665C1416.4 139.665 1415.31 139.665 1414.18 139.665C1414.18 124.801 1414.18 109.936 1414.18 94.6218Z" fill="#003087"/>
<path d="M1461.43 75.2788C1461.7 77.1938 1461.7 77.1938 1461.98 79.1475C1461.01 79.5384 1460.37 79.7776 1459.38 79.9279C1459.14 79.9659 1458.89 80.004 1458.64 80.0431C1458.37 80.0838 1458.1 80.1245 1457.82 80.1665C1457.19 80.2639 1456.56 80.3614 1455.94 80.459C1455.58 80.5135 1455.23 80.5679 1454.86 80.624C1452.84 80.9366 1450.82 81.26 1448.79 81.582C1448.02 81.7045 1447.25 81.8264 1446.48 81.9483C1443.59 82.4067 1440.7 82.8756 1437.82 83.3562C1437.2 83.4589 1436.58 83.5615 1435.96 83.6641C1434.77 83.8617 1433.58 84.0616 1432.38 84.2627C1431.84 84.3535 1431.29 84.4443 1430.74 84.5349C1430.5 84.5772 1430.25 84.6194 1430 84.6629C1428.57 84.8969 1427.23 84.9907 1425.78 84.9505C1425.75 84.7407 1425.71 84.5309 1425.67 84.3147C1425.62 84.0401 1425.57 83.7655 1425.52 83.4825C1425.48 83.21 1425.43 82.9375 1425.38 82.6567C1425.24 81.8882 1425.24 81.8882 1424.95 81.0818C1425.24 81.0388 1425.52 80.9959 1425.82 80.9516C1431.5 80.091 1437.18 79.195 1442.84 78.1997C1446.47 77.5662 1450.11 76.9719 1453.76 76.4063C1455.45 76.1413 1457.14 75.846 1458.82 75.5313C1459.72 75.3681 1460.52 75.2788 1461.43 75.2788Z" fill="#003087"/>
<path d="M1425.51 148.784C1428.03 149.431 1430.48 150.242 1432.95 151.076C1437.7 152.682 1442.47 154.237 1447.25 155.761C1447.54 155.854 1447.83 155.947 1448.13 156.043C1449.28 156.408 1450.43 156.774 1451.57 157.138C1454.09 157.94 1456.6 158.749 1459.12 159.561C1459.3 159.619 1459.48 159.678 1459.67 159.738C1460.62 160.047 1461.58 160.357 1462.53 160.666C1462.32 161.793 1462.03 162.881 1461.71 163.982C1460.06 163.635 1458.44 163.226 1456.82 162.745C1456.59 162.678 1456.37 162.611 1456.13 162.542C1455.38 162.321 1454.63 162.098 1453.88 161.875C1453.62 161.798 1453.36 161.72 1453.09 161.641C1443.68 158.85 1434.28 155.983 1424.95 152.929C1425.14 151.561 1425.32 150.193 1425.51 148.784Z" fill="#003087"/>
<path d="M1478.01 83.5688C1478.62 84.5839 1479.21 85.6042 1479.81 86.6258C1479.98 86.9127 1480.15 87.1997 1480.33 87.4953C1481.88 90.1855 1481.88 90.1855 1481.6 91.8589C1481.29 92.3943 1481.29 92.3943 1480.77 92.6879C1479.94 92.7915 1479.94 92.7915 1479.11 92.6879C1478.16 91.8863 1477.64 90.8244 1477.04 89.7519C1476.93 89.5543 1476.82 89.3568 1476.71 89.1533C1475.95 87.7854 1475.38 86.4639 1474.97 84.9505C1475.37 84.7188 1475.78 84.4889 1476.18 84.2597C1476.4 84.1314 1476.63 84.0032 1476.86 83.8711C1477.46 83.5688 1477.46 83.5688 1478.01 83.5688Z" fill="#003087"/>
<path d="M1491.83 131.098C1492.01 131.281 1492.19 131.463 1492.38 131.651C1492.33 133.489 1491.54 135.032 1490.77 136.677C1490.65 136.949 1490.53 137.221 1490.41 137.501C1490.29 137.763 1490.17 138.025 1490.04 138.295C1489.94 138.531 1489.83 138.768 1489.72 139.012C1489.3 139.737 1488.88 140.238 1488.24 140.77C1486.77 140.684 1486.77 140.684 1486.3 140.217C1486.38 138.23 1487.09 136.664 1487.92 134.881C1488.05 134.608 1488.17 134.335 1488.3 134.053C1489.76 130.879 1489.76 130.879 1491.83 131.098Z" fill="#003087"/>
<path d="M1483.95 145.951C1484.64 146.02 1484.64 146.02 1485.19 146.573C1485.15 148.47 1484.49 149.835 1483.59 151.478C1483.47 151.709 1483.35 151.94 1483.22 152.179C1482.06 154.349 1482.06 154.349 1481.05 155.139C1480.32 155.243 1480.32 155.243 1479.67 155.139C1479.49 154.957 1479.3 154.775 1479.11 154.587C1479.18 152.994 1479.72 151.805 1480.44 150.424C1480.54 150.236 1480.63 150.048 1480.73 149.854C1482.66 146.08 1482.66 146.08 1483.95 145.951Z" fill="#003087"/>
<path d="M1483.59 96.5911C1484.64 96.8329 1484.64 96.8329 1485.2 97.5053C1486.95 100.349 1486.95 100.349 1486.58 102.083C1486.25 102.619 1486.25 102.619 1485.75 102.912C1485.07 103.05 1485.07 103.05 1484.37 102.912C1483.23 101.849 1482.38 100.235 1481.88 98.7672C1482 97.4479 1482.27 96.9531 1483.59 96.5911Z" fill="#003087"/>
<path d="M1489.89 107.333C1490.48 108.003 1490.87 108.751 1491.27 109.544C1491.44 109.852 1491.6 110.16 1491.78 110.477C1492.1 111.202 1492.1 111.202 1492.1 111.755C1491.19 112.12 1490.28 112.484 1489.34 112.86C1489.01 112.391 1488.69 111.918 1488.37 111.444C1488.19 111.181 1488.01 110.918 1487.83 110.647C1487.36 109.726 1487.3 109.182 1487.41 108.162C1488.01 107.15 1488.79 107.09 1489.89 107.333Z" fill="#003087"/>
<path d="M1415.97 97.6619C1422 97.6619 1426.89 92.775 1426.89 86.7466C1426.89 80.7182 1422 75.8313 1415.97 75.8313C1409.94 75.8313 1405.06 80.7182 1405.06 86.7466C1405.06 92.775 1409.94 97.6619 1415.97 97.6619Z" fill="#00B2E2"/>
<path d="M1472.07 86.885C1478.1 86.885 1482.98 81.9981 1482.98 75.9697C1482.98 69.9414 1478.1 65.0544 1472.07 65.0544C1466.04 65.0544 1461.15 69.9414 1461.15 75.9697C1461.15 81.9981 1466.04 86.885 1472.07 86.885Z" fill="#00B2E2"/>
<path d="M1496.11 133.033C1502.14 133.033 1507.03 128.146 1507.03 122.118C1507.03 116.09 1502.14 111.203 1496.11 111.203C1490.08 111.203 1485.2 116.09 1485.2 122.118C1485.2 128.146 1490.08 133.033 1496.11 133.033Z" fill="#00B2E2"/>
<path d="M1472.07 173.654C1478.1 173.654 1482.98 168.767 1482.98 162.739C1482.98 156.711 1478.1 151.824 1472.07 151.824C1466.04 151.824 1461.15 156.711 1461.15 162.739C1461.15 168.767 1466.04 173.654 1472.07 173.654Z" fill="#00B2E2"/>
<path d="M1414.59 160.943C1420.62 160.943 1425.51 156.056 1425.51 150.028C1425.51 144 1420.62 139.113 1414.59 139.113C1408.56 139.113 1403.68 144 1403.68 150.028C1403.68 156.056 1408.56 160.943 1414.59 160.943Z" fill="#00B2E2"/>
</svg>
